g 
v -229.5 -92 -104
v -229.5 -27.9999981 -104
v -200.804199 -2 -99.25
v -201.62764 -0.884793878 -99.9999924
v -200.804199 -119 -99.25
v -268.5 -2 -100.5
v -268.5 -1.00885391 -100.499992
v -268.5 -119 -100.5
v -229 -108 -103.333336
v -204 -49 -84
v -204 -49 -103
v -204 -49 -84
v -204 -49 -103
v -204.285721 -49.8571434 -95.1935043
v -205 -26.6714058 -102.923462
v -205 -22 -103
v -205 -22 -101
v -205 -35.2256508 -85.0820389
v -205 -25 -94
v -205 -29 -89
v -205 -35 -86
v -205 -43 -85
v -204.800003 -49 -91.2902451
v -205 -22 -103
v -205 -22 -101
v -205 -25 -94
v -205 -29 -89
v -205 -35 -86
v -205 -43 -85
v -205.000015 -49.3333015 -91.2902451
v -259.842163 -49.3684387 -95.9742355
v -260 -22 -103
v -260 -22 -101
v -260 -25 -94
v -260 -29 -89
v -260 -35 -86
v -260 -43 -85
v -260.000031 -26.6714077 -102.923477
v -260 -22 -103
v -260 -22 -101
v -260.000031 -35.2679901 -85.0339279
v -260 -25 -94
v -260 -29 -89
v -260 -35 -86
v -260 -43 -85
v -259.999969 -49.6666641 -97.1451874
v -205.714325 -10.4617605 -102.699997
v -206.800003 -106.769234 -102.5
v -247 -26.5000019 -102.428581
v -247 -92.5 -102.357147
v -262 0.230120808 -103
v -262 -119 -103
v -276.999969 -119.969986 -107.811874
v -230.547607 -108.940338 -101.999992
v -277 -124.513107 -101.81694
v -197.510437 0.230440915 -115.435349
v -197.510468 -131.909607 -106.217674
v -260 -39.5153427 -85.4355774
v -205 -39.5169907 -85.435379
v -197.510513 -121.436119 -97.7347641
v -276.25 0.230049476 -106.774254
v -276.249969 -131.909973 -106.774239
v -277.000031 -131.909988 -109.290436
v -277 0.230047986 -115.435638
vt 0 0 0
vt 0 0 0
vt 0 0 0
vt 0 0 0
vt 2 1 0
vt 2 1 0
vt 2 1 0
vt 2 1 0
vt 2 1 0
vt 2 1 0
vt 2 1 0
vt 2 1 0
vt 2 1 0
vt 2 1 0
vt 2 0 0
vt 2 0 0
vt 2 0 0
vt 2 0 0
vt 2 0 0
vt 2 0 0
vt 2 0 0
vt 2 0 0
vt 2 0 0
vt 2 0 0
vt 0 1 0
vt 2 1 0
vt 2 1 0
vt 0 1 0
vt 2 0 0
vt 2 1 0
vt 0 0 0
vt 2 0 0
vt 2 0 0
vt 0 1 0
vt 0 1 0
vt 0 1 0
vt 0 1 0
vt 0 1 0
vt 0 0 0
vt 0 0 0
vt 0 1 0
vt 0 0 0
vt 0 0 0
vt 0 0 0
vt 0 0 0
vt 0 0 0
vt 0 0 0
vt 0 0 0
vt 0 0 0
vt 0 1 0
vt 2 1 0
vt 2 1 0
vt 0 1 0
vt 0 1 0
vt 0 1 0
vt 0 1 0
vt 0 0 0
vt 0 0 0
vt 0 0 0
vt 0 0 0
vt 0 0 0
vt 0 0 0
vt 0 0 0
vt 0 0 0
vt 0 0 0
vt 0 0 0
vt 2 0 0
vt 2 0 0
vt 0 0 0
vt 0 0 0
vt 0 0 0
vt 0 0 0
vt 0 0 0
vt 0 0 0
vt 0 0 0
vt 0 0 0
vt 2 0 0
vt 0 0 0
vt 0 0 0
vt 0 0 0
vt 0 1 0
vt 2 1 0
vt 0 1 0
vt 0 0 0
vt 0 0 0
vt 2 0 0
vt 0 1 0
vt 0 0 0
vt 2 0 0
vt 0 1 0
vt 0 1 0
vt 2 1 0
vn 0 0 1
vn 0 0 1
vn -0.349524528 0 0.703956008
vn -0.716806293 -4.90384446e-06 0.348550081
vn -0.356084198 0 0.730316341
vn -0.0488153696 0 0.353553921
vn 0.0255313218 -5.86629312e-07 0.342945516
vn 0 0 0.353553385
vn -0.00543096662 0.00543394964 0.38490051
vn 0 0 0
vn 1 1.04246574e-05 4.34360715e-07
vn 0 0 0
vn 0 1 0
vn 0.247009888 -0.848870754 1.07292095e-07
vn 1 1.02853889e-07 0
vn 0 0 0
vn 0 0 0
vn 1 1.06631262e-07 0
vn 0 0 0
vn 0 0 0
vn 0 0 0
vn 0 0 0
vn 0 1 0
vn 0 1 0
vn 0 0.97957772 0.201065883
vn 0 0.857803047 0.513978481
vn 0 0.628677607 0.777666152
vn 2.6772879e-08 0.289784253 0.957091928
vn 0 0 0
vn -1 8.68724442e-07 0
vn 0.712563515 -0.383144259 0
vn 0 1 0
vn 0 0.97957772 0.201065883
vn 0 0.857803047 0.513978481
vn 0 0.628677607 0.777666152
vn 2.6772879e-08 0.289784253 0.957091928
vn 0 0 0
vn -1 1.02855392e-06 0
vn 0 0 0
vn 0 0 0
vn -1 8.84420388e-07 0
vn 0 0 0
vn 0 0 0
vn 0 0 0
vn 0 0 0
vn -1 8.6873315e-06 0
vn -0.0581847318 -0.0581847318 0.772521019
vn -0.269460499 0.269460499 0.572980165
vn 0.0869127959 -0.0869127959 0.660398126
vn 0.100635797 0.100635797 0.59578836
vn 2.81724402e-16 -2.02064411e-15 1
vn 0 0 1
vn -1 -1.49002872e-07 0
vn 0 0 1
vn -0.715226829 0.057706546 0.468861282
vn 3.59189721e-06 -4.43328473e-14 -1
vn 5.36612424e-06 -0.853553295 -0.353553444
vn 5.27770929e-08 0.124034949 0.99227792
vn 5.27770929e-08 0.124034949 0.99227792
vn -1.65131571e-08 0.12268167 0.872383952
vn -0.694828033 -1.11162244e-08 0.360301346
vn -0.740729094 -1.1850573e-08 0.342332512
vn 5.17707986e-06 -0.902369022 -0.235701963
vn 3.59189721e-06 -4.43328473e-14 -1
g 
f 11/1/11 13/2/13 12/3/12 10/4/10
f 16/5/16 24/6/24 25/7/25 17/8/17
f 17/9/17 25/10/25 26/11/26 19/12/19
f 19/13/19 26/14/26 27/15/27 20/16/20
f 20/17/20 27/18/27 28/19/28 21/20/21
f 21/21/21 28/22/28 29/23/29 22/24/22
f 33/25/33 26/26/26 25/27/25
f 34/28/34 27/29/27 26/30/26
f 35/31/35 28/32/28 27/33/27
f 40/34/40 42/35/42 34/36/34 33/37/33
f 42/38/42 43/39/43 35/40/35 34/41/34
f 43/42/43 44/43/44 36/44/36 35/45/35
f 44/46/44 45/47/45 37/48/37 36/49/36
f 32/50/32 25/51/25 24/52/24
f 40/53/40 33/54/33 32/55/32 39/56/39
f 51/57/51 50/58/50 49/59/49
f 47/60/47 51/61/51 49/62/49
f 48/63/48 50/64/50 52/65/52
f 36/66/36 59/67/59 28/68/28
f 56/69/56 63/70/63 64/71/64
f 56/72/56 57/73/57 63/74/63
f 36/75/36 58/76/58 59/77/59
f 52/78/52 50/79/50 51/80/51
f 33/81/33 25/82/25 32/83/32
f 35/84/35 36/85/36 28/86/28
f 34/87/34 35/88/35 27/89/27
f 33/90/33 34/91/34 26/92/26
