g 
v -229.5 -70.6666641 -104
v -200.804199 -41 -99.25
v -201.62764 -0.884793878 -99.9999924
v -268.5 -67 -100.5
v -268.5 -1.00885391 -100.499992
v -229 -108 -103.333336
v -204 -49 -84
v -204 -49 -103
v -204 -49 -84
v -204 -49 -103
v -204.285721 -49.8571434 -95.1935043
v -205 -26.3765106 -95.8976974
v -205 -22 -103
v -205 -22 -101
v -205 -25 -94
v -205 -29 -89
v -205 -35 -86
v -205 -43 -85
v -204.800003 -49 -91.2902451
v -205 -22 -103
v -205 -22 -101
v -205 -25 -94
v -205 -29 -89
v -205 -35 -86
v -205 -43 -85
v -205.000015 -49.3333015 -91.2902451
v -259.842163 -49.3684387 -95.9742355
v -260 -22 -103
v -260 -22 -101
v -260 -25 -94
v -260 -29 -89
v -260 -35 -86
v -260 -43 -85
v -260.000031 -26.1374512 -96.3862915
v -260 -22 -103
v -260 -22 -101
v -260 -25 -94
v -260 -29 -89
v -260 -35 -86
v -260 -43 -85
v -259.999969 -49.6666641 -97.1451874
v -231.58342 -57.3768158 -102.647057
v -276.999969 -119.969986 -107.811874
v -230.547607 -108.940338 -101.999992
v -238.625763 -123.339058 -100.741043
v -237.255325 -91.2513046 -110.826515
v -233.037476 -39.5161514 -85.4354858
v -276.249939 -52.6259651 -106.774254
vt 0 0 0
vt 0 0 0
vt 0 0 0
vt 0 0 0
vt 2 1 0
vt 2 1 0
vt 2 1 0
vt 2 1 0
vt 2 1 0
vt 2 1 0
vt 2 1 0
vt 2 1 0
vt 2 1 0
vt 2 1 0
vt 2 0 0
vt 2 0 0
vt 2 0 0
vt 2 0 0
vt 2 0 0
vt 2 0 0
vt 2 0 0
vt 2 0 0
vt 2 0 0
vt 2 0 0
vt 0 1 0
vt 2 1 0
vt 2 1 0
vt 0 1 0
vt 2 0 0
vt 2 1 0
vt 0 0 0
vt 2 0 0
vt 2 0 0
vt 0 1 0
vt 0 1 0
vt 0 1 0
vt 0 1 0
vt 0 1 0
vt 0 0 0
vt 0 0 0
vt 0 1 0
vt 0 0 0
vt 0 0 0
vt 0 0 0
vt 0 0 0
vt 0 0 0
vt 0 0 0
vt 0 0 0
vt 0 0 0
vt 0 1 0
vt 2 1 0
vt 2 1 0
vt 0 1 0
vt 0 1 0
vt 0 1 0
vt 0 1 0
vt 0 0 0
vt 2 0 0
vt 2 0 0
vt 0 1 0
vt 2 1 0
vt 0 1 0
vt 0 0 0
vt 0 0 0
vt 2 0 0
vt 0 1 0
vt 0 0 0
vt 2 0 0
vt 0 1 0
vt 0 1 0
vt 2 1 0
vn 0 0 1
vn -0.353897631 0 0.721529543
vn -0.716806293 -4.90384446e-06 0.348550081
vn -0.0271196514 0 0.353553683
vn 0.0255313218 -5.86629312e-07 0.342945516
vn -0.00543096662 0.00543394964 0.38490051
vn 0 0 0
vn 1 1.04246574e-05 4.34360715e-07
vn 0 0 0
vn 0 1 0
vn 0.247009888 -0.848870754 1.07292095e-07
vn 1 1.05446148e-07 0
vn 0 0 0
vn 0 0 0
vn 0 0 0
vn 0 0 0
vn 0 0 0
vn 0 0 0
vn 0 1 0
vn 0 1 0
vn 0 0.97957772 0.201065883
vn 0 0.857803047 0.513978481
vn 0 0.628677607 0.777666152
vn 2.6772879e-08 0.289784253 0.957091928
vn 0 0 0
vn -1 8.68724442e-07 0
vn 0.712563515 -0.383144259 0
vn 0 1 0
vn 0 0.97957772 0.201065883
vn 0 0.857803047 0.513978481
vn 0 0.628677607 0.777666152
vn 2.6772879e-08 0.289784253 0.957091928
vn 0 0 0
vn -1 9.25529548e-07 0
vn 0 0 0
vn 0 0 0
vn 0 0 0
vn 0 0 0
vn 0 0 0
vn 0 0 0
vn -1 8.6873315e-06 0
vn -0.0549655557 0.0580997169 0.720516086
vn -1 -1.49002872e-07 0
vn 0 0 1
vn -0.344762176 0.0913615897 0.677873135
vn 4.10908933e-06 -0.270323217 -0.782820284
vn 5.27770929e-08 0.124034956 0.99227792
vn -0.722368717 -1.15568337e-08 0.349520057
g 
f 8/1/8 10/2/10 9/3/9 7/4/7
f 13/5/13 20/6/20 21/7/21 14/8/14
f 14/9/14 21/10/21 22/11/22 15/12/15
f 15/13/15 22/14/22 23/15/23 16/16/16
f 16/17/16 23/18/23 24/19/24 17/20/17
f 17/21/17 24/22/24 25/23/25 18/24/18
f 29/25/29 22/26/22 21/27/21
f 30/28/30 23/29/23 22/30/22
f 31/31/31 24/32/24 23/33/23
f 36/34/36 37/35/37 30/36/30 29/37/29
f 37/38/37 38/39/38 31/40/31 30/41/30
f 38/42/38 39/43/39 32/44/32 31/45/31
f 39/46/39 40/47/40 33/48/33 32/49/32
f 28/50/28 21/51/21 20/52/20
f 36/53/36 29/54/29 28/55/28 35/56/35
f 32/57/32 47/58/47 24/59/24
f 29/60/29 21/61/21 28/62/28
f 31/63/31 32/64/32 24/65/24
f 30/66/30 31/67/31 23/68/23
f 29/69/29 30/70/30 22/71/22
