g 
v -214 -92 -104
v -214 -28 -104
v -245 -28 -104
v -245 -92 -104
v -200.804199 -2 -99.25
v -201.62764 -0.884793878 -99.9999924
v -200.804199 -119 -99.25
v -268.5 -2 -100.5
v -268.5 -1.00885391 -100.499992
v -268.5 -119 -100.5
v -229 -108 -103.333336
v -204 -49 -84
v -204 -49 -103
v -204 -49 -84
v -204 -49 -103
v -204.333328 -49.9999962 -103
v -205 -21.8517227 -102.984116
v -205 -22 -103
v -205 -22 -101
v -205 -35.2256508 -85.0820389
v -205 -25 -94
v -205 -29 -89
v -205 -35 -86
v -205 -43 -85
v -205 -50 -103
v -204.800003 -49 -91.2902451
v -205 -22 -103
v -205 -22 -101
v -205 -25 -94
v -205 -29 -89
v -205 -35 -86
v -205 -43 -85
v -205.000015 -49.3333015 -91.2902451
v -259.842102 -49.3684196 -102.999992
v -260 -22 -103
v -260 -22 -101
v -260 -25 -94
v -260 -29 -89
v -260 -35 -86
v -260 -43 -85
v -260 -21.851799 -102.983063
v -260 -22 -103
v -260 -22 -101
v -260.000031 -35.2679901 -85.0339279
v -260 -25 -94
v -260 -29 -89
v -260 -35 -86
v -260 -43 -85
v -260 -50 -103
v -259.999969 -49.6666641 -97.1451874
v -203 0.230412066 -102.999992
v -203 -119 -102.999992
v -212.500015 -26.5000019 -102.357155
v -212.500015 -92.5000076 -102.166672
v -247 -26.5000019 -102.428581
v -247 -92.5 -102.357147
v -262 0.230120808 -103
v -262 -119 -103
v -276.999969 -119.969986 -107.811874
v -230.677917 -117.788246 -102.000008
v -231.318939 -100.129425 -102.000008
v -277 -124.513107 -101.81694
v -197.510437 0.230440915 -115.435349
v -197.510468 -131.909607 -106.217674
v -204.250015 -49.75 -85.435379
v -260 -39.5153427 -85.4355774
v -205 -39.5169907 -85.435379
v -259.842102 -49.3684196 -85.4355774
v -197.510513 -121.436119 -97.7347641
v -276.25 0.230049476 -106.774254
v -276.249969 -131.909973 -106.774239
v -277.000031 -131.909988 -109.290436
v -277 0.230047986 -115.435638
vt 0 0 0
vt 0 0 0
vt 0 0 0
vt 0 0 0
vt 0 0 0
vt 0 0 0
vt 0 0 0
vt 2 1 0
vt 2 1 0
vt 2 1 0
vt 2 1 0
vt 2 1 0
vt 2 1 0
vt 2 1 0
vt 2 1 0
vt 2 1 0
vt 2 1 0
vt 2 0 0
vt 2 0 0
vt 2 0 0
vt 2 0 0
vt 2 0 0
vt 2 0 0
vt 2 0 0
vt 2 0 0
vt 2 0 0
vt 2 0 0
vt 0 1 0
vt 2 1 0
vt 2 1 0
vt 0 1 0
vt 2 0 0
vt 2 1 0
vt 0 0 0
vt 2 0 0
vt 2 0 0
vt 0 1 0
vt 0 1 0
vt 0 1 0
vt 0 1 0
vt 0 1 0
vt 0 0 0
vt 0 0 0
vt 0 1 0
vt 0 0 0
vt 0 0 0
vt 0 0 0
vt 0 0 0
vt 0 0 0
vt 0 0 0
vt 0 0 0
vt 0 0 0
vt 0 1 0
vt 2 1 0
vt 2 1 0
vt 0 1 0
vt 0 1 0
vt 0 1 0
vt 0 1 0
vt 0 0 0
vt 0 0 0
vt 0 0 0
vt 0 0 0
vt 0 0 0
vt 0 0 0
vt 0 0 0
vt 0 0 0
vt 0 0 0
vt 0 0 0
vt 0 0 0
vt 0 0 0
vt 0 0 0
vt 0 0 0
vt 0 0 0
vt 0 0 0
vt 2 0 0
vt 2 0 0
vt 3 1 0
vt 2.0241878 0 0
vt 3 0 0
vt 0 0 0
vt 0 0 0
vt 0 0 0
vt 0 0 0
vt 0 0 0
vt 0 0 0
vt 4 0.435580432 0
vt 3 1 0
vt 3 0 0
vt 0 0 0
vt 0 0 0
vt 2 0 0
vt 0 0 0
vt 0 0 0
vt 0 0 0
vt 0 0 0
vt 0 0 0
vt 0 0 0
vt 0 0 0
vt 0 0 0
vt 0 0 0
vt 0 0 0
vt 0 0 0
vt 0 0 0
vt 0 1 0
vt 2 1 0
vt 0 1 0
vt 0 0 0
vt 0 0 0
vt 2 0 0
vt 0 1 0
vt 0 0 0
vt 2 0 0
vt 0 1 0
vt 0 1 0
vt 2 1 0
vt 0 0 0
vt 0 0 0
vt 0 0 0
vn 0 0 1
vn 0 0 1
vn 0 0 1
vn 0 0 1
vn -0.349524528 0 0.703956008
vn -0.716806293 -4.90384446e-06 0.348550081
vn -0.356084198 0 0.730316341
vn -0.0488153696 0 0.353553921
vn 0.0255313218 -5.86629312e-07 0.342945516
vn 0 0 0.353553385
vn -0.00543096662 0.00543394964 0.38490051
vn 0 0 0
vn 1 1.04246574e-05 4.34360715e-07
vn 0 0 0
vn 0 1 0
vn 0.235698387 -0.90236938 1.02378863e-07
vn 1 0 0
vn 0 0 0
vn 0 0 0
vn 1 1.06631262e-07 0
vn 0 0 0
vn 0 0 0
vn 0 0 0
vn 0 0 0
vn 1 1.24103295e-07 0
vn 0 1 0
vn 0 1 0
vn 0 0.97957772 0.201065883
vn 0 0.857803047 0.513978481
vn 0 0.628677607 0.777666152
vn 2.6772879e-08 0.289784253 0.957091928
vn 0 0 0
vn -1 8.68724442e-07 0
vn 0.698408186 -0.39590022 0
vn 0 1 0
vn 0 0.97957772 0.201065883
vn 0 0.857803047 0.513978481
vn 0 0.628677607 0.777666152
vn 2.6772879e-08 0.289784253 0.957091928
vn 0 0 0
vn -1 0 0
vn 0 0 0
vn 0 0 0
vn -1 8.84420388e-07 0
vn 0 0 0
vn 0 0 0
vn 0 0 0
vn 0 0 0
vn -1 1.2410477e-06 0
vn -1 8.6873315e-06 0
vn -4.43701813e-20 0 1
vn 0 0 1
vn -0.0949528366 -0.0949528366 0.628772497
vn -0.49411267 0.49411267 0.216969043
vn 0.0869127959 -0.0869127959 0.660398126
vn 0.100635797 0.100635797 0.59578836
vn 2.81724402e-16 -2.02064411e-15 1
vn 0 0 1
vn -1 -1.49002872e-07 0
vn 0 0 1
vn 0 0 1
vn -0.715226829 0.057706546 0.468861282
vn 3.59189721e-06 -4.43328473e-14 -1
vn 5.36612424e-06 -0.853553295 -0.353553444
vn 0.256060153 -0.806066871 1.11223137e-07
vn 5.27770929e-08 0.124034949 0.99227792
vn 5.27770929e-08 0.124034949 0.99227792
vn 0.72200042 -0.374640346 0
vn -1.65131571e-08 0.12268167 0.872383952
vn -0.694828033 -1.11162244e-08 0.360301346
vn -0.740729094 -1.1850573e-08 0.342332512
vn 5.17707986e-06 -0.902369022 -0.235701963
vn 3.59189721e-06 -4.43328473e-14 -1
g 
f 1/1/1 3/2/3 4/3/4
f 13/4/13 15/5/15 14/6/14 12/7/12
f 18/8/18 27/9/27 28/10/28 19/11/19
f 19/12/19 28/13/28 29/14/29 21/15/21
f 21/16/21 29/17/29 30/18/30 22/19/22
f 22/20/22 30/21/30 31/22/31 23/23/23
f 23/24/23 31/25/31 32/26/32 24/27/24
f 36/28/36 29/29/29 28/30/28
f 37/31/37 30/32/30 29/33/29
f 38/34/38 31/35/31 30/36/30
f 43/37/43 45/38/45 37/39/37 36/40/36
f 45/41/45 46/42/46 38/43/38 37/44/37
f 46/45/46 47/46/47 39/47/39 38/48/38
f 47/49/47 48/50/48 40/51/40 39/52/39
f 35/53/35 28/54/28 27/55/27
f 43/56/43 36/57/36 35/58/35 42/59/42
f 57/60/57 56/61/56 55/62/55
f 53/63/53 57/64/57 55/65/55
f 52/66/52 56/67/56 58/68/58
f 52/69/52 53/70/53 54/71/54
f 65/72/65 16/73/16 13/74/13
f 39/75/39 67/76/67 31/77/31
f 17/78/17 20/79/20 25/80/25
f 63/81/63 72/82/72 73/83/73
f 63/84/63 64/85/64 72/86/72
f 44/87/44 41/88/41 49/89/49
f 39/90/39 66/91/66 67/92/67
f 52/93/52 51/94/51 53/95/53
f 52/96/52 54/97/54 56/98/56
f 53/99/53 51/100/51 57/101/57
f 58/102/58 56/103/56 57/104/57
f 36/105/36 28/106/28 35/107/35
f 38/108/38 39/109/39 31/110/31
f 37/111/37 38/112/38 30/113/30
f 36/114/36 37/115/37 29/116/29
f 1/117/1 2/118/2 3/119/3
