g 
v -214 -92 -104
v -214 -28 -104
v -245 -28 -104
v -245 -92 -104
v -200.804199 -2 -99.25
v -201.62764 -0.884793878 -99.9999924
v -200.804199 -119 -99.25
v -262 -2.00000024 -101.333336
v -262 -1.25662804 -100
v -268.5 -119 -100.5
v -275 -2 -99.6666718
v -275 -0.761077464 -100.857132
v -225 -108.000008 -103.400009
v -233 -108 -103.25
v -204 -49 -84
v -204 -49 -103
v -204 -49 -84
v -204 -49 -103
v -204.333328 -49.9999962 -103
v -205 -21.8517227 -102.984116
v -205 -22 -103
v -205 -22 -101
v -205 -31.3124123 -86.208725
v -205 -25 -94
v -205 -29 -89
v -205 -35 -86
v -205 -43 -85
v -205 -50 -103
v -204.800003 -49 -91.2902451
v -205 -22 -103
v -205 -22 -101
v -205 -25 -94
v -205 -29 -89
v -205 -35 -86
v -205 -43 -85
v -205 -49.3333359 -102.999985
v -259.842102 -49.3684196 -102.999992
v -260 -22 -103
v -260 -22 -101
v -260 -25 -94
v -260 -29 -89
v -260 -35 -86
v -260 -43 -85
v -260 -21.851799 -102.983063
v -260 -22 -103
v -260 -22 -101
v -260 -31.243597 -86.2747116
v -260 -25 -94
v -260 -29 -89
v -260 -35 -86
v -260 -43 -85
v -260 -50 -103
v -259.999969 -49.6666641 -102.999992
v -203 0.230412066 -102.999992
v -203 -119 -102.999992
v -212.500015 -26.5000019 -102.357155
v -212.500015 -92.5000076 -102.166672
v -247 -26.5000019 -102.428581
v -247 -92.5 -102.357147
v -262 0.230120808 -103
v -262 -119 -103
v -276.999969 -113.999992 -107.811874
v -230.677917 -117.788246 -102.000008
v -231.318939 -100.129425 -102.000008
v -276.999969 -119.812958 -96.1366806
v -277 -126.34597 -103.695663
v -197.510437 0.230440915 -115.435349
v -197.510468 -131.909607 -106.217674
v -205 -49.3333321 -85.4353867
v -204.250015 -49.75 -85.435379
v -260 -49.9999962 -85.435585
v -260 -39.5153427 -85.4355774
v -205 -39.5169907 -85.435379
v -205 -50 -85.435379
v -259.842102 -49.3684196 -85.4355774
v -259.999969 -49.6666641 -85.4355774
v -276.999969 -131.909958 -107.811874
v -197.510513 -121.436119 -97.7347641
v -276.25 0.230049476 -106.774254
v -276.249969 -131.909973 -106.774239
v -277.000031 -131.909988 -109.290436
v -277 0.230047986 -115.435638
vt 0 0 0
vt 0 0 0
vt 0 0 0
vt 0 2 0
vt 0 0 0
vt 0 2 0
vt 0 0 0
vt 0 0 0
vt 0 0 0
vt 0 0 0
vt 2 1 0
vt 2 1 0
vt 2 1 0
vt 2 1 0
vt 2 1 0
vt 2 1 0
vt 2 1 0
vt 2 1 0
vt 2 1 0
vt 2 1 0
vt 2 0 0
vt 2 0 0
vt 2 0 0
vt 2 0 0
vt 2 0 0
vt 2 0 0
vt 2 0 0
vt 2 0 0
vt 2 0 0
vt 2 0 0
vt 0 1 0
vt 2 1 0
vt 2 1 0
vt 0 1 0
vt 2 0 0
vt 2 1 0
vt 0 0 0
vt 2 0 0
vt 2 0 0
vt 0 1 0
vt 0 1 0
vt 0 1 0
vt 0 1 0
vt 0 1 0
vt 0 0 0
vt 0 0 0
vt 0 1 0
vt 0 0 0
vt 0 0 0
vt 0 0 0
vt 0 0 0
vt 0 0 0
vt 0 0 0
vt 0 0 0
vt 0 0 0
vt 0 1 0
vt 2 1 0
vt 2 1 0
vt 0 1 0
vt 0 1 0
vt 0 1 0
vt 0 1 0
vt 0 0 0
vt 0 0 0
vt 0 0 0
vt 0 0 0
vt 0 0 0
vt 0 0 0
vt 0 0 0
vt 0 0 0
vt 0 0 0
vt 0 0 0
vt 0 0 0
vt 0 0 0
vt 0 0 0
vt 0 0 0
vt 0 0 0
vt 0 0 0
vt 2 0 0
vt 2 0 0
vt 3 1 0
vt 2.0241878 0 0
vt 3 0 0
vt -0.930634737 0 0
vt -2 -0 0
vt -2 -0 0
vt 0 0 0
vt 0 0 0
vt 0 0 0
vt 0 0 0
vt 0 0 0
vt 0 0 0
vt -2 -0 0
vt -0.930634737 0 0
vt -2 -0 0
vt 2.02418756 0 0
vt 2.0241878 0 0
vt 3 0 0
vt 4 0.435580432 0
vt 3 1 0
vt 3 0 0
vt 0 0 0
vt 0 0 0
vt 2 0 0
vt 3.97580075 0 0
vt 3.97580099 0 0
vt 3 0 0
vt 0 0 0
vt 0 0 0
vt 0 0 0
vt 0 0 0
vt 0 0 0
vt 0 0 0
vt 0 0 0
vt 0 0 0
vt 0 0 0
vt 0 0 0
vt 0 0 0
vt 0 0 0
vt 0 1 0
vt 2 1 0
vt 0 1 0
vt 0 0 0
vt 0 0 0
vt 2 0 0
vt 0 1 0
vt 0 0 0
vt 2 0 0
vt 0 1 0
vt 0 1 0
vt 2 1 0
vt 0 0 0
vt 0 0 0
vt 0 0 0
vn 0 0 1
vn 0 0 1
vn 0 0 1
vn 0 0 1
vn -0.349524528 0 0.703956008
vn -0.716806293 -4.90384446e-06 0.348550081
vn -0.356084198 0 0.730316341
vn 0.804737687 0 0.47140485
vn 0.882842779 -4.83819747e-07 0.282842666
vn 0 0 0.353553385
vn -0.902368665 0 0.235702977
vn -0.833015978 -6.89587125e-07 0.403134972
vn 0.615195334 -0.00535190105 0.408958942
vn -0.626008928 0.0162189603 0.360843986
vn 0 0 0
vn 1 1.04246574e-05 4.34360715e-07
vn 0 0 0
vn 0 1 0
vn 0.235698387 -0.90236938 1.02378863e-07
vn 1 0 0
vn 0 0 0
vn 0 0 0
vn 1 4.15071959e-08 0
vn 0 0 0
vn 0 0 0
vn 0 0 0
vn 0 0 0
vn 1 1.24103295e-07 0
vn 0 1 0
vn 0 1 0
vn 0 0.97957772 0.201065883
vn 0 0.857803047 0.513978481
vn 0 0.628677607 0.777666152
vn 2.6772879e-08 0.289784253 0.957091928
vn 0 0 0
vn -1 8.68724442e-07 0
vn 0.698408186 -0.39590022 0
vn 0 1 0
vn 0 0.97957772 0.201065883
vn 0 0.857803047 0.513978481
vn 0 0.628677607 0.777666152
vn 2.6772879e-08 0.289784253 0.957091928
vn 0 0 0
vn -1 0 0
vn 0 0 0
vn 0 0 0
vn -1 -4.01744018e-07 0
vn 0 0 0
vn 0 0 0
vn 0 0 0
vn 0 0 0
vn -1 1.2410477e-06 0
vn -1 8.6873315e-06 0
vn -4.43701813e-20 0 1
vn 0 0 1
vn -0.0949528366 -0.0949528366 0.628772497
vn -0.49411267 0.49411267 0.216969043
vn 0.0869127959 -0.0869127959 0.660398126
vn 0.100635797 0.100635797 0.59578836
vn 2.81724402e-16 -2.02064411e-15 1
vn 0 0 1
vn -1 -1.49002872e-07 0
vn 0 0 1
vn 0 0 1
vn -0.707529783 -0.0709119663 0.558860183
vn -0.73688221 0.419568628 0.215653718
vn 3.59189721e-06 -4.43328473e-14 -1
vn 5.36612424e-06 -0.853553295 -0.353553444
vn -1 8.68724442e-07 0
vn 0.256060153 -0.806066871 1.11223137e-07
vn -1 1.2410477e-06 0
vn 5.27770929e-08 0.124034949 0.99227792
vn 5.27770929e-08 0.124034949 0.99227792
vn 1 1.24103295e-07 0
vn 0.72200042 -0.374640346 0
vn -1 8.6873315e-06 0
vn -1 -1.49002872e-07 0
vn -1.65131571e-08 0.12268167 0.872383952
vn -0.694828033 -1.11162244e-08 0.360301346
vn -0.740729094 -1.1850573e-08 0.342332512
vn 5.17707986e-06 -0.902369022 -0.235701963
vn 3.59189721e-06 -4.43328473e-14 -1
g 
f 1/1/1 3/2/3 4/3/4
f 11/4/11 10/5/10 8/6/8
f 16/7/16 18/8/18 17/9/17 15/10/15
f 21/11/21 30/12/30 31/13/31 22/14/22
f 22/15/22 31/16/31 32/17/32 24/18/24
f 24/19/24 32/20/32 33/21/33 25/22/25
f 25/23/25 33/24/33 34/25/34 26/26/26
f 26/27/26 34/28/34 35/29/35 27/30/27
f 39/31/39 32/32/32 31/33/31
f 40/34/40 33/35/33 32/36/32
f 41/37/41 34/38/34 33/39/33
f 46/40/46 48/41/48 40/42/40 39/43/39
f 48/44/48 49/45/49 41/46/41 40/47/40
f 49/48/49 50/49/50 42/50/42 41/51/41
f 50/52/50 51/53/51 43/54/43 42/55/42
f 38/56/38 31/57/31 30/58/30
f 46/59/46 39/60/39 38/61/38 45/62/45
f 60/63/60 59/64/59 58/65/58
f 56/66/56 60/67/60 58/68/58
f 55/69/55 59/70/59 61/71/61
f 55/72/55 56/73/56 57/74/57
f 70/75/70 19/76/19 16/77/16
f 42/78/42 73/79/73 34/80/34
f 20/81/20 23/82/23 28/83/28
f 78/84/78 66/85/66 65/86/65
f 67/87/67 81/88/81 82/89/82
f 67/90/67 68/91/68 81/92/81
f 66/93/66 78/94/78 65/95/65
f 23/96/23 74/97/74 28/98/28
f 47/99/47 44/100/44 52/101/52
f 42/102/42 72/103/72 73/104/73
f 71/105/71 47/106/47 52/107/52
f 55/108/55 54/109/54 56/110/56
f 55/111/55 57/112/57 59/113/59
f 56/114/56 54/115/54 60/116/60
f 61/117/61 59/118/59 60/119/60
f 39/120/39 31/121/31 38/122/38
f 41/123/41 42/124/42 34/125/34
f 40/126/40 41/127/41 33/128/33
f 39/129/39 40/130/40 32/131/32
f 1/132/1 2/133/2 3/134/3
