g 
v -214 -92 -104
v -214 -28 -104
v -245 -28 -104
v -245 -92 -104
v -200.804199 -2 -99.25
v -200.804214 -1.00870335 -98
v -203.000015 -0.513058126 -103
v -200.804199 -119 -99.25
v -262 -2.00000024 -101.333336
v -262 -1.25662804 -100
v -262 -119 -100.5
v -275 -2 -99.6666718
v -275 -0.761077464 -100.857132
v -275 -119 -100.5
v -225 -104 -103.5
v -225 -112 -103.333336
v -233 -104 -103
v -233 -112.000008 -103.5
v -204 -49 -84
v -204 -49 -103
v -204 -49 -84
v -204 -49 -103
v -204.333328 -49.9999962 -103
v -205 -21.8517227 -102.984116
v -205 -22 -103
v -205 -22 -101
v -205 -31.3124123 -86.208725
v -205 -25 -94
v -205 -29 -89
v -205 -35 -86
v -205 -43 -85
v -205 -50 -103
v -205 -49 -103
v -205 -22 -103
v -205 -22 -101
v -205 -25 -94
v -205 -29 -89
v -205 -35 -86
v -205 -43 -85
v -205 -49.3333359 -102.999985
v -259.842102 -49.3684196 -102.999992
v -260 -22 -103
v -260 -22 -101
v -260 -25 -94
v -260 -29 -89
v -260 -35 -86
v -260 -43 -85
v -260 -21.851799 -102.983063
v -260 -22 -103
v -260 -22 -101
v -260 -31.243597 -86.2747116
v -260 -25 -94
v -260 -29 -89
v -260 -35 -86
v -260 -43 -85
v -260 -50 -103
v -259.999969 -49.6666641 -102.999992
v -203 0.230412066 -102.999992
v -203 -93 -103
v -203 -119 -102.999992
v -212.500015 -26.5000019 -102.357155
v -212.500015 -92.5000076 -102.166672
v -247 -26.5000019 -102.428581
v -247 -92.5 -102.357147
v -262 0.230120808 -103
v -262 -119 -103
v -277 -114 -104
v -235 -118 -102
v -222 -117 -102
v -222 -100 -102
v -236 -100 -102
v -276.999969 -119.812958 -96.1366806
v -276.999969 -117.999992 -104
v -197.510437 0.230440915 -115.435349
v -197.510437 -131.909592 -115.435349
v -204.666672 -49 -85.4353714
v -205 -49.3333321 -85.4353867
v -204.250015 -49.75 -85.435379
v -260 -49.9999962 -85.435585
v -260 -39.5153427 -85.4355774
v -205 -39.5169907 -85.435379
v -205 -50 -85.435379
v -259.842102 -49.3684196 -85.4355774
v -259.999969 -49.6666641 -85.4355774
v -277 -114 -115.435638
v -277 -131.909973 -104
v -277 -131.909973 -115.435638
v -197.510513 -119.350006 -95.9499893
v -197.510483 -118 -104
v -277.000031 -131.909988 -102.250008
v -197.510513 -131.909592 -97
v -276 0.230050415 -100.999992
v -275.500031 -131.909973 -101.000015
v -277 -131.909973 -115.435638
v -277 0.230047986 -115.435638
v -277 -131.909973 -115.435638
v -277 0.230047986 -115.435638
v -197.510498 -131.909592 -97
v -277.000031 -131.909988 -97
vt 0 0 0
vt 0 0 0
vt 0 0 0
vt 0 2 0
vt 0 0 0
vt 0 2 0
vt 0 0 0
vt 0 0 0
vt 0 0 0
vt 0 0 0
vt 0 0 0
vt 0 0 0
vt 0 0 0
vt 2 1 0
vt 2 1 0
vt 2 1 0
vt 2 1 0
vt 2 1 0
vt 2 1 0
vt 2 1 0
vt 2 1 0
vt 2 1 0
vt 2 1 0
vt 2 0 0
vt 2 0 0
vt 2 0 0
vt 2 0 0
vt 2 0 0
vt 2 0 0
vt 2 0 0
vt 2 0 0
vt 2 0 0
vt 2 0 0
vt 0 1 0
vt 2 1 0
vt 2 1 0
vt 0 1 0
vt 2 0 0
vt 2 1 0
vt 0 0 0
vt 2 0 0
vt 2 0 0
vt 0 1 0
vt 0 1 0
vt 0 1 0
vt 0 1 0
vt 0 1 0
vt 0 0 0
vt 0 0 0
vt 0 1 0
vt 0 0 0
vt 0 0 0
vt 0 0 0
vt 0 0 0
vt 0 0 0
vt 0 0 0
vt 0 0 0
vt 0 0 0
vt 0 1 0
vt 2 1 0
vt 2 1 0
vt 0 1 0
vt 0 1 0
vt 0 1 0
vt 0 1 0
vt 0 0 0
vt 0 0 0
vt 0 0 0
vt 0 0 0
vt 0 0 0
vt 0 0 0
vt 0 0 0
vt 0 0 0
vt 0 0 0
vt 0 0 0
vt 0 0 0
vt 0 0 0
vt 0 0 0
vt 1 1 0
vt 0 1 0
vt 0 0 0
vt 0 0 0
vt 0 0 0
vt 0 0 0
vt 2 0 0
vt 2 0 0
vt 3 1 0
vt 2.0241878 0 0
vt 3 0 0
vt 0 0 0
vt 0 0 0
vt 0 0 0
vt -0.930634737 0 0
vt -2 -0 0
vt -2 -0 0
vt -2 -0 0
vt -0.930634737 0 0
vt -0.930634677 0 0
vt -2 -0 0
vt -2 -0 0
vt -2 -0 0
vt 10 3.24107361 0
vt 9.71694851 1.21593904 0
vt 10 1.21593904 0
vt 0 0 0
vt 0 0 0
vt 0 0 0
vt 0 0 0
vt 0 0 0
vt 0 0 0
vt 0 0 0
vt 0 0 0
vt 0 0 0
vt 0 0 0
vt 0 0 0
vt 0 0 0
vt 10 3.24107361 0
vt 9.71694756 3.24107337 0
vt 9.71694851 1.21593904 0
vt -2 -0 0
vt -0.930634737 0 0
vt -2 -0 0
vt -0.930634737 0 0
vt -0.930634379 0 0
vt -2 -0 0
vt 0 0 0
vt 0 0 0
vt 0 0 0
vt 2.02418756 0 0
vt 2.0241878 0 0
vt 3 0 0
vt 4 0.435580432 0
vt 3 1 0
vt 3 0 0
vt 0 0 0
vt 0 0 0
vt 2 0 0
vt 3.97580075 0 0
vt 3.97580099 0 0
vt 3 0 0
vt 0 0 0
vt 0 0 0
vt 0 0 0
vt 0 0 0
vt 1 0 0
vt 1 1 0
vt 0 0 0
vt 0 0 0
vt 0 0 0
vt 0 0 0
vt 0 0 0
vt 0 0 0
vt 0 0 0
vt 0 0 0
vt 0 0 0
vt 0 0 0
vt 0 0 0
vt 0 0 0
vt 0 0 0
vt 0 0 0
vt 0 0 0
vt 0 1 0
vt 2 1 0
vt 0 1 0
vt 0 0 0
vt 0 0 0
vt 2 0 0
vt 0 1 0
vt 0 0 0
vt 2 0 0
vt 0 1 0
vt 0 1 0
vt 2 1 0
vt 0 0 0
vt 0 0 0
vt 0 0 0
vt 0 0 0
vt 0 0 0
vt 0 2 0
vt 0 0 0
vt 0 0 0
vt 0 0 0
vn 0 0 1
vn 0 0 1
vn 0 0 1
vn 0 0 1
vn -0.349524528 0 0.703956008
vn -0.282625645 -1.93351502e-06 0.882932425
vn -1 -6.84123734e-06 -4.89323426e-13
vn -0.356084198 0 0.730316341
vn 0.804737687 0 0.47140485
vn 0.882842779 -4.83819747e-07 0.282842666
vn 0.853553414 0 0.353553385
vn -0.902368665 0 0.235702977
vn -0.833015978 -6.89587125e-07 0.403134972
vn -0.853553414 0 0.353553385
vn 0.609789371 0.609789371 0.433012694
vn 0.62060225 -0.62060225 0.384900898
vn -0.642228484 0.642228484 0.288675129
vn -0.609789371 -0.609789371 0.433012694
vn 0 0 0
vn 1 1.04246574e-05 4.34360715e-07
vn 0 0 0
vn 0 1 0
vn 0.235698387 -0.90236938 1.02378863e-07
vn 1 0 0
vn 0 0 0
vn 0 0 0
vn 1 4.15071959e-08 0
vn 0 0 0
vn 0 0 0
vn 0 0 0
vn 0 0 0
vn 1 1.24103295e-07 0
vn 0 1 0
vn 0 1 0
vn 0 0.97957772 0.201065883
vn 0 0.857803047 0.513978481
vn 0 0.628677607 0.777666152
vn 2.6772879e-08 0.289784253 0.957091928
vn 0 0 0
vn -1 8.68724442e-07 0
vn 0.698408186 -0.39590022 0
vn 0 1 0
vn 0 0.97957772 0.201065883
vn 0 0.857803047 0.513978481
vn 0 0.628677607 0.777666152
vn 2.6772879e-08 0.289784253 0.957091928
vn 0 0 0
vn -1 0 0
vn 0 0 0
vn 0 0 0
vn -1 -4.01744018e-07 0
vn 0 0 0
vn 0 0 0
vn 0 0 0
vn 0 0 0
vn -1 1.2410477e-06 0
vn -1 8.6873315e-06 0
vn -4.43701813e-20 0 1
vn 0 0 1
vn 0 0 1
vn -0.0949528366 -0.0949528366 0.628772497
vn -0.49411267 0.49411267 0.216969043
vn 0.0869127959 -0.0869127959 0.660398126
vn 0.100635797 0.100635797 0.59578836
vn 2.81724402e-16 -2.02064411e-15 1
vn 0 0 1
vn -1 -1.49002872e-07 0
vn 0 0 1
vn 0 0 1
vn 0 0 1
vn 0 0 1
vn -0.707529783 -0.0709119663 0.558860183
vn -0.707106769 0.707106769 -3.31799299e-07
vn 3.59189721e-06 -4.43328473e-14 -1
vn 5.93325467e-06 -0.70710665 -0.707106769
vn 0 1 0
vn -1 8.68724442e-07 0
vn 0.256060153 -0.806066871 1.11223137e-07
vn -1 1.2410477e-06 0
vn 5.27770929e-08 0.124034949 0.99227792
vn 5.27770929e-08 0.124034949 0.99227792
vn 1 1.24103295e-07 0
vn 0.72200042 -0.374640346 0
vn -1 8.6873315e-06 0
vn -1 -1.49002872e-07 0
vn -1 -1.49002872e-07 0
vn -1 -1.49002872e-07 0
vn -5.69427661e-09 -0.0780925676 0.922325134
vn 0 1 -4.6923509e-07
vn -0.780329764 0 0.530330837
vn -1.93707539e-08 0 1
vn -0.235701591 -3.77088849e-09 0.902369022
vn -0.353545636 -5.65621816e-09 0.853556514
vn -1 -1.59985198e-08 0
vn -1 -1.59985198e-08 0
vn 5.93325467e-06 -0.70710665 -0.707106769
vn 3.59189721e-06 -4.43328473e-14 -1
vn 4.79899336e-06 -1 -1.46203789e-07
vn 4.79899336e-06 -1 -1.46203789e-07
g 
f 1/1/1 3/2/3 4/3/4
f 12/4/12 11/5/11 9/6/9
f 16/7/16 17/8/17 18/9/18
f 20/10/20 22/11/22 21/12/21 19/13/19
f 25/14/25 34/15/34 35/16/35 26/17/26
f 26/18/26 35/19/35 36/20/36 28/21/28
f 28/22/28 36/23/36 37/24/37 29/25/29
f 29/26/29 37/27/37 38/28/38 30/29/30
f 30/30/30 38/31/38 39/32/39 31/33/31
f 43/34/43 36/35/36 35/36/35
f 44/37/44 37/38/37 36/39/36
f 45/40/45 38/41/38 37/42/37
f 50/43/50 52/44/52 44/45/44 43/46/43
f 52/47/52 53/48/53 45/49/45 44/50/44
f 53/51/53 54/52/54 46/53/46 45/54/45
f 54/55/54 55/56/55 47/57/47 46/58/46
f 42/59/42 35/60/35 34/61/34
f 50/62/50 43/63/43 42/64/42 49/65/49
f 65/66/65 64/67/64 63/68/63
f 61/69/61 65/70/65 63/71/63
f 60/72/60 64/73/64 66/74/66
f 59/75/59 61/76/61 62/77/62
f 68/78/68 70/79/70 71/80/71
f 78/81/78 23/82/23 20/83/20
f 46/84/46 81/85/81 38/86/38
f 24/87/24 27/88/27 32/89/32
f 67/90/67 87/91/87 86/92/86
f 88/93/88 73/94/73 72/95/72
f 72/96/72 91/97/91 88/98/88
f 90/99/90 72/100/72 73/101/73
f 92/102/92 94/103/94 93/104/93
f 74/105/74 96/106/96 97/107/97
f 75/108/75 99/109/99 96/110/96
f 98/111/98 99/112/99 75/113/75
f 74/114/74 75/115/75 96/116/96
f 92/117/92 95/118/95 94/119/94
f 90/120/90 91/121/91 72/122/72
f 88/123/88 89/124/89 73/125/73
f 85/126/85 87/127/87 67/128/67
f 27/129/27 82/130/82 32/131/32
f 51/132/51 48/133/48 56/134/56
f 46/135/46 80/136/80 81/137/81
f 79/138/79 51/139/51 56/140/56
f 22/141/22 33/142/33 76/143/76
f 68/144/68 69/145/69 70/146/70
f 60/147/60 59/148/59 62/149/62
f 59/150/59 58/151/58 61/152/61
f 60/153/60 62/154/62 64/155/64
f 61/156/61 58/157/58 65/158/65
f 66/159/66 64/160/64 65/161/65
f 43/162/43 35/163/35 42/164/42
f 45/165/45 46/166/46 38/167/38
f 44/168/44 45/169/45 37/170/37
f 43/171/43 44/172/44 36/173/36
f 15/174/15 17/175/17 16/176/16
f 14/177/14 11/178/11 12/179/12
f 1/180/1 2/181/2 3/182/3
