g 
v 9.91008759 0.6617136 0.492559105
v 10.1496506 0.660197914 0.515802085
v 10.1514425 0.663230121 0.482359052
v 9.8469038 1.09066701 0.5
v 10.2189341 1.09066701 0.5
v 9.84603977 0.590667009 0.5
v 10.2189341 0.590667009 0.5
v 9.9494276 0.957655013 0.490634382
v 10.1212339 0.957654893 0.494146466
v 9.94906807 0.668765068 0.49531728
v 10.1211033 0.668765008 0.488292992
v 9.99428082 1.04811466 0.502821267
v 9.96798706 1.06581259 0.503245413
v 10.0341673 1.0646193 0.504835248
v 9.96184349 1.01978314 0.503466666
v 9.94368362 1.03799105 0.503823519
v 9.89998531 1.02543342 0.501845717
v 10.0336742 1.02091968 0.512915075
v 10.0346603 1.02091956 0.49769491
v 10.074049 1.04811585 0.502639532
v 10.1003428 1.06581676 0.503615379
v 10.1683474 1.02543271 0.50279671
v 10.1064901 1.01978278 0.503127098
v 10.1246519 1.03799117 0.504156232
v 9.93412781 0.973280132 0.497973621
v 9.93250656 1.01481497 0.505823255
v 10.1397448 0.973280251 0.497973651
v 10.1381226 1.01481497 0.505823433
vt 0.887832999 0.552797973 0
vt 0.91861397 0.820580006 0
vt 0.887832999 0.820580006 0
vt 0.916486979 0.808287978 0
vt 0.887812972 0.569231987 0
vt 0.916486979 0.569231987 0
vt 0.104280002 0.847307026 0
vt 0.380490988 1.00099099 0
vt -0.00046000001 1.00099099 0
vt 0.103382997 0.513517976 0
vt -0.00046000001 1.00099099 0
vt -0.00228199991 0.423283011 0
vt 0.104280002 0.847307026 0
vt 0.279581994 0.513517976 0
vt 0.280216992 0.847307026 0
vt 0.379649013 0.423283011 0
vt 0.280216992 0.847307026 0
vt 0.279581994 0.513517976 0
vt 0.103382997 0.513517976 0
vt 0.379649013 0.423283011 0
vt 0.279581994 0.513517976 0
vt 0.141826004 0.947161019 0
vt 0.165422007 0.975116014 0
vt 0.133007005 0.972369015 0
vt 0.119065002 0.913492024 0
vt 0.114327997 0.959959984 0
vt 0.0995400026 0.939266026 0
vt 0.177855998 0.937249005 0
vt 0.165422007 0.975116014 0
vt 0.160246998 0.948181987 0
vt 0.224702001 0.948181987 0
vt 0.251944005 0.972369015 0
vt 0.219528005 0.975117028 0
vt 0.270621002 0.959959984 0
vt 0.265884995 0.913492024 0
vt 0.285409987 0.939266026 0
vt 0.456366986 0.0398820005 0
vt 0.494094998 0.040022999 0
vt 0.456366986 0.0733579993 0
vt 0.207093999 0.937249005 0
vt 0.224702001 0.948181987 0
vt 0.219528005 0.975117028 0
vt 0.265884995 0.913492024 0
vt 0.325004995 0.913492024 0
vt 0.285409987 0.939266026 0
vt 0.243123993 0.947161019 0
vt 0.259436995 0.935645998 0
vt 0.251944005 0.972369015 0
vt 0.393721014 0.0398820005 0
vt 0.393721014 0.0733579993 0
vt 0.355993986 0.0734999999 0
vt 0.119065002 0.913492024 0
vt 0.0995400026 0.939266026 0
vt 0.0599449985 0.913492024 0
vt 0.141826004 0.947161019 0
vt 0.133007005 0.972369015 0
vt 0.125513002 0.935645998 0
vt -0.00228199991 0.423283011 0
vt 0.379649013 0.423283011 0
vt 0.103382997 0.513517976 0
vt 0.379649013 0.423283011 0
vt 0.380490988 1.00099099 0
vt 0.280216992 0.847307026 0
vt 0.103382997 0.513517976 0
vt 0.279581994 0.513517976 0
vt 0.104280002 0.847307026 0
vt 0.103382997 0.513517976 0
vt 0.104280002 0.847307026 0
vt -0.00046000001 1.00099099 0
vt 0.280216992 0.847307026 0
vt 0.380490988 1.00099099 0
vt 0.104280002 0.847307026 0
vn 0 -0.102386296 -0.692849874
vn 0 0 -1
vn 0 0.333533525 -6.6706707e-07
vn 0 0 1
vn 0 0 1
vn 0 0 1
vn 0 0 1
vn 0 0 1
vn 0 0 1
vn 0 0 1
vn 0 0 1
vn 0.0563988015 -0.333012402 0.659240186
vn -0.171447068 0.322700709 0.632330179
vn 0.0313136019 0.4628326 0.535145819
vn 0.670713007 -0.676862359 0
vn -0.317517519 0.239660859 0.602187634
vn -0.915626049 -0.402031004 0
vn 0.238632306 -0.103137262 0.730929375
vn -0.274718165 -0.569571137 -2.19232879e-06
vn -0.0719835013 -0.31825006 0.670961559
vn 0.167397484 0.35163644 0.607715547
vn 0.915611982 -0.402061999 0
vn -0.646767616 -0.709001958 6.83250164e-07
vn 0.334967613 0.252847165 0.580317855
vn -0.00171400001 -0.298099995 0.954532981
vn -0.134639457 -0.119499356 0.382663637
vn -0.00171400001 -0.298099995 0.954532981
vn -0.134667054 -0.119495295 0.382651806
g polySurface51
f 1/1/1 2/2/2 3/3/3
f 1/4/1 3/5/3 2/6/2
f 8/7/8 5/8/5 4/9/4
f 10/10/10 4/11/4 6/12/6
f 8/13/8 11/14/11 9/15/9
f 7/16/7 9/17/9 11/18/11
f 10/19/10 7/20/7 11/21/11
f 12/22/12 14/23/14 13/24/13
f 15/25/15 13/26/13 16/27/16
f 18/28/18 14/29/14 12/30/12
f 20/31/20 21/32/21 14/33/14
f 21/34/21 23/35/23 24/36/24
f 19/37/19 20/38/20 18/39/18
f 18/40/18 20/41/20 14/42/14
f 23/43/23 22/44/22 24/45/24
f 20/46/20 23/47/23 21/48/21
f 19/49/19 18/50/18 12/51/12
f 15/52/15 16/53/16 17/54/17
f 12/55/12 13/56/13 15/57/15
f 6/58/6 7/59/7 10/60/10
f 7/61/7 5/62/5 9/63/9
f 10/64/10 11/65/11 8/66/8
f 10/67/10 8/68/8 4/69/4
f 9/70/9 5/71/5 8/72/8
