g 
v 9.9091835 0.663229704 0.515802026
v 10.1496506 0.660197914 0.515802085
v 9.91099167 0.660197258 0.482358962
v 10.1514425 0.663230121 0.482359052
v 9.8469038 1.09066701 0.5
v 10.2189341 1.09066701 0.5
v 9.84603977 0.590667009 0.5
v 10.2189341 0.590667009 0.5
v 9.9494276 0.957655013 0.490634382
v 10.1212339 0.957654893 0.494146466
v 9.94906807 0.668765068 0.49531728
v 10.1211033 0.668765008 0.488292992
v 9.99428082 1.04811466 0.502821267
v 9.96798706 1.06581259 0.503245413
v 10.0334673 1.06462002 0.51297611
v 10.0348663 1.06462002 0.497772068
v 9.96184349 1.01978314 0.503466666
v 9.94368362 1.03799105 0.503823519
v 9.89998531 1.02543342 0.501845717
v 10.0336742 1.02091968 0.512915075
v 10.0346603 1.02091956 0.49769491
v 10.074049 1.04811585 0.502639532
v 10.1003428 1.06581676 0.503615379
v 10.1683474 1.02543271 0.50279671
v 10.1064901 1.01978278 0.503127098
v 10.1246519 1.03799117 0.504156232
v 9.93412781 0.973280132 0.497973621
v 9.91313267 1.01463354 0.506589472
v 9.94833946 1.01508081 0.504662037
v 10.1397448 0.973280251 0.497973651
v 10.1187487 1.01463354 0.506589711
v 10.1539545 1.01508057 0.504662037
vt 0.887832999 0.552797973 0
vt 0.91861397 0.820580006 0
vt 0.887832999 0.820580006 0
vt 0.916486979 0.808287978 0
vt 0.887812972 0.569231987 0
vt 0.916486979 0.569231987 0
vt 0.104280002 0.847307026 0
vt 0.380490988 1.00099099 0
vt -0.00046000001 1.00099099 0
vt 0.103382997 0.513517976 0
vt -0.00046000001 1.00099099 0
vt -0.00228199991 0.423283011 0
vt 0.104280002 0.847307026 0
vt 0.279581994 0.513517976 0
vt 0.280216992 0.847307026 0
vt 0.379649013 0.423283011 0
vt 0.280216992 0.847307026 0
vt 0.279581994 0.513517976 0
vt 0.103382997 0.513517976 0
vt 0.379649013 0.423283011 0
vt 0.279581994 0.513517976 0
vt 0.141826004 0.947161019 0
vt 0.165422007 0.975116014 0
vt 0.133007005 0.972369015 0
vt 0.297625989 0.040022999 0
vt 0.367080986 0.0734999999 0
vt 0.36707899 0.040022999 0
vt 0.119065002 0.913492024 0
vt 0.114327997 0.959959984 0
vt 0.0995400026 0.939266026 0
vt 0.177855998 0.937249005 0
vt 0.165422007 0.975116014 0
vt 0.160246998 0.948181987 0
vt 0.224702001 0.948181987 0
vt 0.251944005 0.972369015 0
vt 0.219528005 0.975117028 0
vt 0.552461982 0.0734999999 0
vt 0.483009994 0.040022999 0
vt 0.483007014 0.0734990016 0
vt 0.270621002 0.959959984 0
vt 0.265884995 0.913492024 0
vt 0.285409987 0.939266026 0
vt 0.279383004 0.910393 0
vt 0.315631002 0.871370971 0
vt 0.315191001 0.910393 0
vt 0.279383004 0.910393 0
vt 0.315631002 0.871370971 0
vt 0.315191001 0.910393 0
vt 0.456366986 0.0398820005 0
vt 0.494094998 0.040022999 0
vt 0.456366986 0.0733579993 0
vt 0.207093999 0.937249005 0
vt 0.224702001 0.948181987 0
vt 0.219528005 0.975117028 0
vt 0.265884995 0.913492024 0
vt 0.325004995 0.913492024 0
vt 0.285409987 0.939266026 0
vt 0.243123993 0.947161019 0
vt 0.259436995 0.935645998 0
vt 0.251944005 0.972369015 0
vt 0.393721014 0.0398820005 0
vt 0.393721014 0.0733579993 0
vt 0.355993986 0.0734999999 0
vt 0.119065002 0.913492024 0
vt 0.0995400026 0.939266026 0
vt 0.0599449985 0.913492024 0
vt 0.141826004 0.947161019 0
vt 0.133007005 0.972369015 0
vt 0.125513002 0.935645998 0
vt -0.00228199991 0.423283011 0
vt 0.379649013 0.423283011 0
vt 0.103382997 0.513517976 0
vt 0.379649013 0.423283011 0
vt 0.380490988 1.00099099 0
vt 0.280216992 0.847307026 0
vt 0.103382997 0.513517976 0
vt 0.279581994 0.513517976 0
vt 0.104280002 0.847307026 0
vt 0.103382997 0.513517976 0
vt 0.104280002 0.847307026 0
vt -0.00046000001 1.00099099 0
vt 0.280216992 0.847307026 0
vt 0.380490988 1.00099099 0
vt 0.104280002 0.847307026 0
vt 0.887812972 0.808287978 0
vt 0.887812972 0.569231987 0
vt 0.916486979 0.808287978 0
vt 0.91861397 0.552797973 0
vt 0.91861397 0.820580006 0
vt 0.887832999 0.552797973 0
vn 0 0 -1
vn 0 0 -1
vn 0 -0.333343029 6.66686049e-07
vn 0 0.333533525 -6.6706707e-07
vn 0 0 1
vn 0 0 1
vn 0 0 1
vn 0 0 1
vn 0 0 1
vn 0 0 1
vn 0 0 1
vn 0 0 1
vn 0.0563988015 -0.333012402 0.659240186
vn -0.171447068 0.322700709 0.632330179
vn 2.99273615e-05 -7.41924159e-05 0.999999881
vn 0.0673277676 0.995736778 -1.19678589e-07
vn 0.670713007 -0.676862359 0
vn -0.317517519 0.239660859 0.602187634
vn -0.915626049 -0.402031004 0
vn 0.238632306 -0.103137262 0.730929375
vn -0.274718165 -0.569571137 -2.19232879e-06
vn -0.0719835013 -0.31825006 0.670961559
vn 0.167397484 0.35163644 0.607715547
vn 0.915611982 -0.402061999 0
vn -0.646767616 -0.709001958 6.83250164e-07
vn 0.334967613 0.252847165 0.580317855
vn -0.00171400001 -0.298099995 0.954532981
vn -0.667222559 -0.0993599445 0.318192422
vn 0.515792787 -0.144095197 0.461400926
vn -0.00171400001 -0.298099995 0.954532981
vn -0.667241037 -0.0993537381 0.31817472
vn 0.515792787 -0.144095197 0.461400926
g polySurface51
f 3/1/3 2/2/2 4/3/4
f 1/4/1 4/5/4 2/6/2
f 9/7/9 6/8/6 5/9/5
f 11/10/11 5/11/5 7/12/7
f 9/13/9 12/14/12 10/15/10
f 8/16/8 10/17/10 12/18/12
f 11/19/11 8/20/8 12/21/12
f 13/22/13 15/23/15 14/24/14
f 14/25/14 15/26/15 16/27/16
f 17/28/17 14/29/14 18/30/18
f 20/31/20 15/32/15 13/33/13
f 22/34/22 23/35/23 15/36/15
f 23/37/23 16/38/16 15/39/15
f 23/40/23 25/41/25 26/42/26
f 28/43/28 27/44/27 29/45/29
f 31/46/31 30/47/30 32/48/32
f 21/49/21 22/50/22 20/51/20
f 20/52/20 22/53/22 15/54/15
f 25/55/25 24/56/24 26/57/26
f 22/58/22 25/59/25 23/60/23
f 21/61/21 20/62/20 13/63/13
f 17/64/17 18/65/18 19/66/19
f 13/67/13 14/68/14 17/69/17
f 7/70/7 8/71/8 11/72/11
f 8/73/8 6/74/6 10/75/10
f 11/76/11 12/77/12 9/78/9
f 11/79/11 9/80/9 5/81/5
f 10/82/10 6/83/6 9/84/9
f 3/85/3 4/86/4 1/87/1
f 1/88/1 2/89/2 3/90/3
